<mxfile host="app.diagrams.net" modified="2023-05-29T21:54:04.291Z" agent="Mozilla/5.0 (X11; Linux x86_64) AppleWebKit/537.36 (KHTML, like Gecko) Chrome/113.0.0.0 Safari/537.36" etag="5V3k86zkQXZMffeDfczM" version="21.3.5" type="github">
  <diagram name="Page-1" id="52a04d89-c75d-2922-d76d-85b35f80e030">
    <mxGraphModel dx="3887" dy="914" grid="1" gridSize="10" guides="1" tooltips="1" connect="1" arrows="1" fold="1" page="1" pageScale="1" pageWidth="1100" pageHeight="850" background="none" math="0" shadow="0">
      <root>
        <mxCell id="0" />
        <mxCell id="1" parent="0" />
        <mxCell id="WqvIRTkH4l0Zexk1lBVL-6" style="edgeStyle=orthogonalEdgeStyle;rounded=0;orthogonalLoop=1;jettySize=auto;html=1;entryX=0.5;entryY=0;entryDx=0;entryDy=0;" edge="1" parent="1" source="WqvIRTkH4l0Zexk1lBVL-4" target="WqvIRTkH4l0Zexk1lBVL-5">
          <mxGeometry relative="1" as="geometry" />
        </mxCell>
        <mxCell id="WqvIRTkH4l0Zexk1lBVL-4" value="&lt;b&gt;&lt;font style=&quot;font-size: 16px;&quot;&gt;Приложение&lt;/font&gt;&lt;/b&gt;" style="whiteSpace=wrap;html=1;rounded=1;shadow=0;comic=0;labelBackgroundColor=none;strokeWidth=1;fontFamily=Comic Sans MS;fontSize=12;align=center;" vertex="1" parent="1">
          <mxGeometry x="-960" y="30" width="200" height="50" as="geometry" />
        </mxCell>
        <mxCell id="WqvIRTkH4l0Zexk1lBVL-9" style="edgeStyle=orthogonalEdgeStyle;rounded=0;orthogonalLoop=1;jettySize=auto;html=1;entryX=0.5;entryY=0;entryDx=0;entryDy=0;" edge="1" parent="1" source="WqvIRTkH4l0Zexk1lBVL-5" target="WqvIRTkH4l0Zexk1lBVL-7">
          <mxGeometry relative="1" as="geometry">
            <Array as="points">
              <mxPoint x="-860" y="220" />
              <mxPoint x="-1130" y="220" />
            </Array>
          </mxGeometry>
        </mxCell>
        <mxCell id="WqvIRTkH4l0Zexk1lBVL-10" style="edgeStyle=orthogonalEdgeStyle;rounded=0;orthogonalLoop=1;jettySize=auto;html=1;" edge="1" parent="1" source="WqvIRTkH4l0Zexk1lBVL-5" target="WqvIRTkH4l0Zexk1lBVL-8">
          <mxGeometry relative="1" as="geometry">
            <Array as="points">
              <mxPoint x="-860" y="220" />
              <mxPoint x="-560" y="220" />
            </Array>
          </mxGeometry>
        </mxCell>
        <mxCell id="WqvIRTkH4l0Zexk1lBVL-5" value="&lt;b&gt;&lt;font style=&quot;font-size: 16px;&quot;&gt;Авторизация&lt;/font&gt;&lt;/b&gt;" style="whiteSpace=wrap;html=1;rounded=1;shadow=0;comic=0;labelBackgroundColor=none;strokeWidth=1;fontFamily=Comic Sans MS;fontSize=12;align=center;" vertex="1" parent="1">
          <mxGeometry x="-960" y="140" width="200" height="50" as="geometry" />
        </mxCell>
        <mxCell id="WqvIRTkH4l0Zexk1lBVL-169" style="edgeStyle=orthogonalEdgeStyle;rounded=0;orthogonalLoop=1;jettySize=auto;html=1;entryX=0.5;entryY=0;entryDx=0;entryDy=0;" edge="1" parent="1" source="WqvIRTkH4l0Zexk1lBVL-7" target="WqvIRTkH4l0Zexk1lBVL-12">
          <mxGeometry relative="1" as="geometry">
            <Array as="points">
              <mxPoint x="-1130" y="370" />
              <mxPoint x="-1130" y="370" />
            </Array>
          </mxGeometry>
        </mxCell>
        <mxCell id="WqvIRTkH4l0Zexk1lBVL-7" value="&lt;b&gt;&lt;font style=&quot;font-size: 16px;&quot;&gt;Вход&lt;/font&gt;&lt;/b&gt;" style="whiteSpace=wrap;html=1;rounded=1;shadow=0;comic=0;labelBackgroundColor=none;strokeWidth=1;fontFamily=Comic Sans MS;fontSize=12;align=center;" vertex="1" parent="1">
          <mxGeometry x="-1230" y="260" width="200" height="50" as="geometry" />
        </mxCell>
        <mxCell id="WqvIRTkH4l0Zexk1lBVL-170" style="edgeStyle=orthogonalEdgeStyle;rounded=0;orthogonalLoop=1;jettySize=auto;html=1;entryX=0.5;entryY=0;entryDx=0;entryDy=0;" edge="1" parent="1" source="WqvIRTkH4l0Zexk1lBVL-8" target="WqvIRTkH4l0Zexk1lBVL-13">
          <mxGeometry relative="1" as="geometry" />
        </mxCell>
        <mxCell id="WqvIRTkH4l0Zexk1lBVL-171" style="edgeStyle=orthogonalEdgeStyle;rounded=0;orthogonalLoop=1;jettySize=auto;html=1;" edge="1" parent="1" source="WqvIRTkH4l0Zexk1lBVL-8" target="WqvIRTkH4l0Zexk1lBVL-11">
          <mxGeometry relative="1" as="geometry">
            <Array as="points">
              <mxPoint x="-560" y="360" />
              <mxPoint x="-860" y="360" />
            </Array>
          </mxGeometry>
        </mxCell>
        <mxCell id="WqvIRTkH4l0Zexk1lBVL-172" style="edgeStyle=orthogonalEdgeStyle;rounded=0;orthogonalLoop=1;jettySize=auto;html=1;entryX=0.5;entryY=0;entryDx=0;entryDy=0;" edge="1" parent="1" source="WqvIRTkH4l0Zexk1lBVL-8" target="WqvIRTkH4l0Zexk1lBVL-12">
          <mxGeometry relative="1" as="geometry">
            <Array as="points">
              <mxPoint x="-560" y="360" />
              <mxPoint x="-1130" y="360" />
            </Array>
          </mxGeometry>
        </mxCell>
        <mxCell id="WqvIRTkH4l0Zexk1lBVL-8" value="&lt;b&gt;&lt;font style=&quot;font-size: 16px;&quot;&gt;Регистрация&lt;/font&gt;&lt;/b&gt;" style="whiteSpace=wrap;html=1;rounded=1;shadow=0;comic=0;labelBackgroundColor=none;strokeWidth=1;fontFamily=Comic Sans MS;fontSize=12;align=center;" vertex="1" parent="1">
          <mxGeometry x="-660" y="270" width="200" height="50" as="geometry" />
        </mxCell>
        <mxCell id="WqvIRTkH4l0Zexk1lBVL-177" style="edgeStyle=orthogonalEdgeStyle;rounded=0;orthogonalLoop=1;jettySize=auto;html=1;" edge="1" parent="1" source="WqvIRTkH4l0Zexk1lBVL-11" target="WqvIRTkH4l0Zexk1lBVL-173">
          <mxGeometry relative="1" as="geometry" />
        </mxCell>
        <mxCell id="WqvIRTkH4l0Zexk1lBVL-11" value="&lt;span style=&quot;font-size: 16px;&quot;&gt;&lt;b&gt;GITHUB&lt;/b&gt;&lt;/span&gt;" style="whiteSpace=wrap;html=1;rounded=1;shadow=0;comic=0;labelBackgroundColor=none;strokeWidth=1;fontFamily=Comic Sans MS;fontSize=12;align=center;" vertex="1" parent="1">
          <mxGeometry x="-960" y="400" width="200" height="50" as="geometry" />
        </mxCell>
        <mxCell id="WqvIRTkH4l0Zexk1lBVL-178" style="edgeStyle=orthogonalEdgeStyle;rounded=0;orthogonalLoop=1;jettySize=auto;html=1;entryX=0.5;entryY=0;entryDx=0;entryDy=0;" edge="1" parent="1" source="WqvIRTkH4l0Zexk1lBVL-12" target="WqvIRTkH4l0Zexk1lBVL-173">
          <mxGeometry relative="1" as="geometry">
            <Array as="points">
              <mxPoint x="-1130" y="590" />
              <mxPoint x="-860" y="590" />
            </Array>
          </mxGeometry>
        </mxCell>
        <mxCell id="WqvIRTkH4l0Zexk1lBVL-12" value="&lt;span style=&quot;font-size: 16px;&quot;&gt;&lt;b&gt;GOOGLE&lt;/b&gt;&lt;/span&gt;" style="whiteSpace=wrap;html=1;rounded=1;shadow=0;comic=0;labelBackgroundColor=none;strokeWidth=1;fontFamily=Comic Sans MS;fontSize=12;align=center;" vertex="1" parent="1">
          <mxGeometry x="-1230" y="400" width="200" height="50" as="geometry" />
        </mxCell>
        <mxCell id="WqvIRTkH4l0Zexk1lBVL-175" style="edgeStyle=orthogonalEdgeStyle;rounded=0;orthogonalLoop=1;jettySize=auto;html=1;entryX=0.5;entryY=0;entryDx=0;entryDy=0;" edge="1" parent="1" source="WqvIRTkH4l0Zexk1lBVL-13" target="WqvIRTkH4l0Zexk1lBVL-174">
          <mxGeometry relative="1" as="geometry" />
        </mxCell>
        <mxCell id="WqvIRTkH4l0Zexk1lBVL-13" value="&lt;span style=&quot;font-size: 16px;&quot;&gt;&lt;b&gt;Пароль и почта&lt;/b&gt;&lt;/span&gt;" style="whiteSpace=wrap;html=1;rounded=1;shadow=0;comic=0;labelBackgroundColor=none;strokeWidth=1;fontFamily=Comic Sans MS;fontSize=12;align=center;" vertex="1" parent="1">
          <mxGeometry x="-660" y="400" width="200" height="50" as="geometry" />
        </mxCell>
        <mxCell id="WqvIRTkH4l0Zexk1lBVL-173" value="&lt;b&gt;&lt;font style=&quot;font-size: 16px;&quot;&gt;Главный экран&lt;/font&gt;&lt;/b&gt;" style="whiteSpace=wrap;html=1;rounded=1;shadow=0;comic=0;labelBackgroundColor=none;strokeWidth=1;fontFamily=Comic Sans MS;fontSize=12;align=center;" vertex="1" parent="1">
          <mxGeometry x="-960" y="640" width="200" height="50" as="geometry" />
        </mxCell>
        <mxCell id="WqvIRTkH4l0Zexk1lBVL-179" style="edgeStyle=orthogonalEdgeStyle;rounded=0;orthogonalLoop=1;jettySize=auto;html=1;entryX=0.5;entryY=0;entryDx=0;entryDy=0;" edge="1" parent="1" source="WqvIRTkH4l0Zexk1lBVL-174" target="WqvIRTkH4l0Zexk1lBVL-173">
          <mxGeometry relative="1" as="geometry">
            <Array as="points">
              <mxPoint x="-560" y="590" />
              <mxPoint x="-860" y="590" />
            </Array>
          </mxGeometry>
        </mxCell>
        <mxCell id="WqvIRTkH4l0Zexk1lBVL-174" value="&lt;span style=&quot;font-size: 16px;&quot;&gt;&lt;b&gt;Подтверждение&lt;/b&gt;&lt;/span&gt;&lt;b style=&quot;font-size: 16px;&quot;&gt;&amp;nbsp;с почты&amp;nbsp;&lt;/b&gt;" style="whiteSpace=wrap;html=1;rounded=1;shadow=0;comic=0;labelBackgroundColor=none;strokeWidth=1;fontFamily=Comic Sans MS;fontSize=12;align=center;" vertex="1" parent="1">
          <mxGeometry x="-682.5" y="510" width="245" height="50" as="geometry" />
        </mxCell>
        <mxCell id="WqvIRTkH4l0Zexk1lBVL-185" style="edgeStyle=orthogonalEdgeStyle;rounded=0;orthogonalLoop=1;jettySize=auto;html=1;entryX=0.5;entryY=0;entryDx=0;entryDy=0;" edge="1" parent="1" source="WqvIRTkH4l0Zexk1lBVL-180" target="WqvIRTkH4l0Zexk1lBVL-184">
          <mxGeometry relative="1" as="geometry">
            <Array as="points">
              <mxPoint x="380" y="140" />
              <mxPoint x="240" y="140" />
            </Array>
          </mxGeometry>
        </mxCell>
        <mxCell id="WqvIRTkH4l0Zexk1lBVL-188" style="edgeStyle=orthogonalEdgeStyle;rounded=0;orthogonalLoop=1;jettySize=auto;html=1;" edge="1" parent="1" source="WqvIRTkH4l0Zexk1lBVL-180" target="WqvIRTkH4l0Zexk1lBVL-186">
          <mxGeometry relative="1" as="geometry">
            <Array as="points">
              <mxPoint x="380" y="140" />
              <mxPoint x="-150" y="140" />
            </Array>
          </mxGeometry>
        </mxCell>
        <mxCell id="WqvIRTkH4l0Zexk1lBVL-189" style="edgeStyle=orthogonalEdgeStyle;rounded=0;orthogonalLoop=1;jettySize=auto;html=1;entryX=0.5;entryY=0;entryDx=0;entryDy=0;" edge="1" parent="1" source="WqvIRTkH4l0Zexk1lBVL-180" target="WqvIRTkH4l0Zexk1lBVL-181">
          <mxGeometry relative="1" as="geometry">
            <Array as="points">
              <mxPoint x="380" y="140" />
              <mxPoint x="820" y="140" />
            </Array>
          </mxGeometry>
        </mxCell>
        <mxCell id="WqvIRTkH4l0Zexk1lBVL-180" value="&lt;b&gt;&lt;font style=&quot;font-size: 16px;&quot;&gt;Главный экран&lt;/font&gt;&lt;/b&gt;" style="whiteSpace=wrap;html=1;rounded=1;shadow=0;comic=0;labelBackgroundColor=none;strokeWidth=1;fontFamily=Comic Sans MS;fontSize=12;align=center;" vertex="1" parent="1">
          <mxGeometry x="270" y="30" width="200" height="50" as="geometry" />
        </mxCell>
        <mxCell id="WqvIRTkH4l0Zexk1lBVL-215" style="edgeStyle=orthogonalEdgeStyle;rounded=0;orthogonalLoop=1;jettySize=auto;html=1;entryX=0;entryY=0.5;entryDx=0;entryDy=0;" edge="1" parent="1" source="WqvIRTkH4l0Zexk1lBVL-181" target="WqvIRTkH4l0Zexk1lBVL-214">
          <mxGeometry relative="1" as="geometry" />
        </mxCell>
        <mxCell id="WqvIRTkH4l0Zexk1lBVL-217" style="edgeStyle=orthogonalEdgeStyle;rounded=0;orthogonalLoop=1;jettySize=auto;html=1;entryX=0;entryY=0.5;entryDx=0;entryDy=0;" edge="1" parent="1" source="WqvIRTkH4l0Zexk1lBVL-181" target="WqvIRTkH4l0Zexk1lBVL-216">
          <mxGeometry relative="1" as="geometry" />
        </mxCell>
        <mxCell id="WqvIRTkH4l0Zexk1lBVL-181" value="&lt;b style=&quot;border-color: var(--border-color);&quot;&gt;&lt;font style=&quot;border-color: var(--border-color); font-size: 16px;&quot;&gt;Настройки&lt;/font&gt;&lt;/b&gt;" style="whiteSpace=wrap;html=1;rounded=1;shadow=0;comic=0;labelBackgroundColor=none;strokeWidth=1;fontFamily=Comic Sans MS;fontSize=12;align=center;" vertex="1" parent="1">
          <mxGeometry x="720" y="190" width="200" height="50" as="geometry" />
        </mxCell>
        <mxCell id="WqvIRTkH4l0Zexk1lBVL-197" style="edgeStyle=orthogonalEdgeStyle;rounded=0;orthogonalLoop=1;jettySize=auto;html=1;entryX=0;entryY=0.5;entryDx=0;entryDy=0;" edge="1" parent="1" source="WqvIRTkH4l0Zexk1lBVL-184" target="WqvIRTkH4l0Zexk1lBVL-196">
          <mxGeometry relative="1" as="geometry" />
        </mxCell>
        <mxCell id="WqvIRTkH4l0Zexk1lBVL-199" style="edgeStyle=orthogonalEdgeStyle;rounded=0;orthogonalLoop=1;jettySize=auto;html=1;entryX=0;entryY=0.5;entryDx=0;entryDy=0;" edge="1" parent="1" source="WqvIRTkH4l0Zexk1lBVL-184" target="WqvIRTkH4l0Zexk1lBVL-198">
          <mxGeometry relative="1" as="geometry" />
        </mxCell>
        <mxCell id="WqvIRTkH4l0Zexk1lBVL-210" style="edgeStyle=orthogonalEdgeStyle;rounded=0;orthogonalLoop=1;jettySize=auto;html=1;entryX=0;entryY=0.5;entryDx=0;entryDy=0;" edge="1" parent="1" source="WqvIRTkH4l0Zexk1lBVL-184" target="WqvIRTkH4l0Zexk1lBVL-209">
          <mxGeometry relative="1" as="geometry" />
        </mxCell>
        <mxCell id="WqvIRTkH4l0Zexk1lBVL-184" value="&lt;b&gt;&lt;font style=&quot;font-size: 16px;&quot;&gt;Дашборд&lt;/font&gt;&lt;/b&gt;" style="whiteSpace=wrap;html=1;rounded=1;shadow=0;comic=0;labelBackgroundColor=none;strokeWidth=1;fontFamily=Comic Sans MS;fontSize=12;align=center;" vertex="1" parent="1">
          <mxGeometry x="140" y="190" width="200" height="50" as="geometry" />
        </mxCell>
        <mxCell id="WqvIRTkH4l0Zexk1lBVL-193" style="edgeStyle=orthogonalEdgeStyle;rounded=0;orthogonalLoop=1;jettySize=auto;html=1;entryX=0;entryY=0.5;entryDx=0;entryDy=0;" edge="1" parent="1" source="WqvIRTkH4l0Zexk1lBVL-186" target="WqvIRTkH4l0Zexk1lBVL-190">
          <mxGeometry relative="1" as="geometry" />
        </mxCell>
        <mxCell id="WqvIRTkH4l0Zexk1lBVL-194" style="edgeStyle=orthogonalEdgeStyle;rounded=0;orthogonalLoop=1;jettySize=auto;html=1;entryX=0;entryY=0.5;entryDx=0;entryDy=0;" edge="1" parent="1" source="WqvIRTkH4l0Zexk1lBVL-186" target="WqvIRTkH4l0Zexk1lBVL-191">
          <mxGeometry relative="1" as="geometry" />
        </mxCell>
        <mxCell id="WqvIRTkH4l0Zexk1lBVL-195" style="edgeStyle=orthogonalEdgeStyle;rounded=0;orthogonalLoop=1;jettySize=auto;html=1;entryX=0;entryY=0.5;entryDx=0;entryDy=0;" edge="1" parent="1" source="WqvIRTkH4l0Zexk1lBVL-186" target="WqvIRTkH4l0Zexk1lBVL-192">
          <mxGeometry relative="1" as="geometry" />
        </mxCell>
        <mxCell id="WqvIRTkH4l0Zexk1lBVL-186" value="&lt;b&gt;&lt;font style=&quot;font-size: 16px;&quot;&gt;Обновления &amp;amp; FAQ&lt;/font&gt;&lt;/b&gt;" style="whiteSpace=wrap;html=1;rounded=1;shadow=0;comic=0;labelBackgroundColor=none;strokeWidth=1;fontFamily=Comic Sans MS;fontSize=12;align=center;" vertex="1" parent="1">
          <mxGeometry x="-250" y="190" width="200" height="50" as="geometry" />
        </mxCell>
        <mxCell id="WqvIRTkH4l0Zexk1lBVL-190" value="&lt;b&gt;&lt;font style=&quot;font-size: 16px;&quot;&gt;Помощь&lt;/font&gt;&lt;/b&gt;" style="whiteSpace=wrap;html=1;rounded=1;shadow=0;comic=0;labelBackgroundColor=none;strokeWidth=1;fontFamily=Comic Sans MS;fontSize=12;align=center;" vertex="1" parent="1">
          <mxGeometry x="-100" y="280" width="170" height="50" as="geometry" />
        </mxCell>
        <mxCell id="WqvIRTkH4l0Zexk1lBVL-191" value="&lt;b&gt;&lt;font style=&quot;font-size: 16px;&quot;&gt;Полезные ссылки&lt;/font&gt;&lt;/b&gt;" style="whiteSpace=wrap;html=1;rounded=1;shadow=0;comic=0;labelBackgroundColor=none;strokeWidth=1;fontFamily=Comic Sans MS;fontSize=12;align=center;" vertex="1" parent="1">
          <mxGeometry x="-100" y="350" width="170" height="50" as="geometry" />
        </mxCell>
        <mxCell id="WqvIRTkH4l0Zexk1lBVL-192" value="&lt;b&gt;&lt;font style=&quot;font-size: 16px;&quot;&gt;Контакты&lt;/font&gt;&lt;/b&gt;" style="whiteSpace=wrap;html=1;rounded=1;shadow=0;comic=0;labelBackgroundColor=none;strokeWidth=1;fontFamily=Comic Sans MS;fontSize=12;align=center;" vertex="1" parent="1">
          <mxGeometry x="-100" y="420" width="170" height="50" as="geometry" />
        </mxCell>
        <mxCell id="WqvIRTkH4l0Zexk1lBVL-196" value="&lt;b&gt;&lt;font style=&quot;font-size: 16px;&quot;&gt;Поиск&lt;/font&gt;&lt;/b&gt;" style="whiteSpace=wrap;html=1;rounded=1;shadow=0;comic=0;labelBackgroundColor=none;strokeWidth=1;fontFamily=Comic Sans MS;fontSize=12;align=center;" vertex="1" parent="1">
          <mxGeometry x="280" y="280" width="160" height="50" as="geometry" />
        </mxCell>
        <mxCell id="WqvIRTkH4l0Zexk1lBVL-202" style="edgeStyle=orthogonalEdgeStyle;rounded=0;orthogonalLoop=1;jettySize=auto;html=1;entryX=0;entryY=0.5;entryDx=0;entryDy=0;" edge="1" parent="1" source="WqvIRTkH4l0Zexk1lBVL-198" target="WqvIRTkH4l0Zexk1lBVL-200">
          <mxGeometry relative="1" as="geometry" />
        </mxCell>
        <mxCell id="WqvIRTkH4l0Zexk1lBVL-204" style="edgeStyle=orthogonalEdgeStyle;rounded=0;orthogonalLoop=1;jettySize=auto;html=1;entryX=0;entryY=0.5;entryDx=0;entryDy=0;" edge="1" parent="1" source="WqvIRTkH4l0Zexk1lBVL-198" target="WqvIRTkH4l0Zexk1lBVL-203">
          <mxGeometry relative="1" as="geometry" />
        </mxCell>
        <mxCell id="WqvIRTkH4l0Zexk1lBVL-207" style="edgeStyle=orthogonalEdgeStyle;rounded=0;orthogonalLoop=1;jettySize=auto;html=1;entryX=0;entryY=0.5;entryDx=0;entryDy=0;" edge="1" parent="1" source="WqvIRTkH4l0Zexk1lBVL-198" target="WqvIRTkH4l0Zexk1lBVL-205">
          <mxGeometry relative="1" as="geometry" />
        </mxCell>
        <mxCell id="WqvIRTkH4l0Zexk1lBVL-208" style="edgeStyle=orthogonalEdgeStyle;rounded=0;orthogonalLoop=1;jettySize=auto;html=1;entryX=0;entryY=0.5;entryDx=0;entryDy=0;" edge="1" parent="1" source="WqvIRTkH4l0Zexk1lBVL-198" target="WqvIRTkH4l0Zexk1lBVL-206">
          <mxGeometry relative="1" as="geometry" />
        </mxCell>
        <mxCell id="WqvIRTkH4l0Zexk1lBVL-198" value="&lt;span style=&quot;font-size: 16px;&quot;&gt;&lt;b&gt;Ссылки&lt;/b&gt;&lt;/span&gt;" style="whiteSpace=wrap;html=1;rounded=1;shadow=0;comic=0;labelBackgroundColor=none;strokeWidth=1;fontFamily=Comic Sans MS;fontSize=12;align=center;" vertex="1" parent="1">
          <mxGeometry x="280" y="450" width="160" height="50" as="geometry" />
        </mxCell>
        <mxCell id="WqvIRTkH4l0Zexk1lBVL-200" value="&lt;span style=&quot;font-size: 16px;&quot;&gt;&lt;b&gt;Создание ссылки&lt;/b&gt;&lt;/span&gt;" style="whiteSpace=wrap;html=1;rounded=1;shadow=0;comic=0;labelBackgroundColor=none;strokeWidth=1;fontFamily=Comic Sans MS;fontSize=12;align=center;" vertex="1" parent="1">
          <mxGeometry x="400" y="525" width="210" height="50" as="geometry" />
        </mxCell>
        <mxCell id="WqvIRTkH4l0Zexk1lBVL-203" value="&lt;span style=&quot;font-size: 16px;&quot;&gt;&lt;b&gt;Создание группы&lt;/b&gt;&lt;/span&gt;" style="whiteSpace=wrap;html=1;rounded=1;shadow=0;comic=0;labelBackgroundColor=none;strokeWidth=1;fontFamily=Comic Sans MS;fontSize=12;align=center;" vertex="1" parent="1">
          <mxGeometry x="400" y="600" width="210" height="50" as="geometry" />
        </mxCell>
        <mxCell id="WqvIRTkH4l0Zexk1lBVL-205" value="&lt;span style=&quot;font-size: 16px;&quot;&gt;&lt;b&gt;Копирование ссылки&lt;/b&gt;&lt;/span&gt;" style="whiteSpace=wrap;html=1;rounded=1;shadow=0;comic=0;labelBackgroundColor=none;strokeWidth=1;fontFamily=Comic Sans MS;fontSize=12;align=center;" vertex="1" parent="1">
          <mxGeometry x="400" y="680" width="210" height="50" as="geometry" />
        </mxCell>
        <mxCell id="WqvIRTkH4l0Zexk1lBVL-206" value="&lt;span style=&quot;font-size: 16px;&quot;&gt;&lt;b&gt;Быстрые действия&lt;/b&gt;&lt;/span&gt;" style="whiteSpace=wrap;html=1;rounded=1;shadow=0;comic=0;labelBackgroundColor=none;strokeWidth=1;fontFamily=Comic Sans MS;fontSize=12;align=center;" vertex="1" parent="1">
          <mxGeometry x="400" y="750" width="210" height="50" as="geometry" />
        </mxCell>
        <mxCell id="WqvIRTkH4l0Zexk1lBVL-213" style="edgeStyle=orthogonalEdgeStyle;rounded=0;orthogonalLoop=1;jettySize=auto;html=1;exitX=1;exitY=0.5;exitDx=0;exitDy=0;entryX=0;entryY=0.5;entryDx=0;entryDy=0;" edge="1" parent="1" source="WqvIRTkH4l0Zexk1lBVL-209" target="WqvIRTkH4l0Zexk1lBVL-211">
          <mxGeometry relative="1" as="geometry" />
        </mxCell>
        <mxCell id="WqvIRTkH4l0Zexk1lBVL-209" value="&lt;b&gt;&lt;font style=&quot;font-size: 16px;&quot;&gt;Отображение&lt;/font&gt;&lt;/b&gt;" style="whiteSpace=wrap;html=1;rounded=1;shadow=0;comic=0;labelBackgroundColor=none;strokeWidth=1;fontFamily=Comic Sans MS;fontSize=12;align=center;" vertex="1" parent="1">
          <mxGeometry x="280" y="360" width="160" height="50" as="geometry" />
        </mxCell>
        <mxCell id="WqvIRTkH4l0Zexk1lBVL-211" value="&lt;b&gt;&lt;font style=&quot;font-size: 16px;&quot;&gt;Доп. отображение&lt;/font&gt;&lt;/b&gt;" style="whiteSpace=wrap;html=1;rounded=1;shadow=0;comic=0;labelBackgroundColor=none;strokeWidth=1;fontFamily=Comic Sans MS;fontSize=12;align=center;" vertex="1" parent="1">
          <mxGeometry x="480" y="360" width="190" height="50" as="geometry" />
        </mxCell>
        <mxCell id="WqvIRTkH4l0Zexk1lBVL-214" value="&lt;b&gt;&lt;font style=&quot;font-size: 16px;&quot;&gt;Выйти&lt;/font&gt;&lt;/b&gt;" style="whiteSpace=wrap;html=1;rounded=1;shadow=0;comic=0;labelBackgroundColor=none;strokeWidth=1;fontFamily=Comic Sans MS;fontSize=12;align=center;" vertex="1" parent="1">
          <mxGeometry x="840" y="280" width="160" height="50" as="geometry" />
        </mxCell>
        <mxCell id="WqvIRTkH4l0Zexk1lBVL-216" value="&lt;b&gt;&lt;font style=&quot;font-size: 16px;&quot;&gt;Информация&lt;/font&gt;&lt;/b&gt;" style="whiteSpace=wrap;html=1;rounded=1;shadow=0;comic=0;labelBackgroundColor=none;strokeWidth=1;fontFamily=Comic Sans MS;fontSize=12;align=center;" vertex="1" parent="1">
          <mxGeometry x="840" y="350" width="160" height="50" as="geometry" />
        </mxCell>
      </root>
    </mxGraphModel>
  </diagram>
</mxfile>
